<svg class="icon" viewBox="0 0 1024 1024" xmlns="http://www.w3.org/2000/svg" width="200" height="200"><defs><style/></defs><path d="M87.135 814.744c-15.74 0-28.445-12.705-28.445-28.445V105.244c0-15.739 12.706-28.444 28.445-28.444s28.444 12.705 28.444 28.444V786.3c0 15.74-12.705 28.445-28.444 28.445zM512.19 928.237c-15.74 0-28.445-12.705-28.445-28.444V218.738c0-15.74 12.705-28.445 28.445-28.445s28.444 12.706 28.444 28.445v681.055c0 15.739-12.8 28.444-28.444 28.444z"/><path d="M512.19 247.182c-2.466 0-4.93-.284-7.396-.948L84.764 132.741c-15.17-4.077-24.177-19.722-20.005-34.892C68.836 82.679 84.48 73.67 99.65 77.843l419.935 113.493c15.17 4.077 24.178 19.722 20.006 34.892-3.413 12.61-14.886 20.954-27.401 20.954zm0 681.055c-2.466 0-4.93-.284-7.396-.948L84.764 813.7c-15.17-4.077-24.177-19.722-20.005-34.892 4.077-15.17 19.721-24.178 34.891-20.006l419.935 113.493c15.17 4.077 24.178 19.722 20.006 34.892-3.413 12.705-14.886 21.049-27.401 21.049z"/><path d="M512.095 247.182c-12.516 0-23.988-8.343-27.402-21.049-4.077-15.17 4.836-30.814 20.006-34.892L924.73 77.748c15.17-4.077 30.815 4.836 34.892 20.006 4.077 15.17-4.836 30.815-20.006 34.892l-420.03 113.588c-2.465.664-5.025.948-7.49.948zM624.45 416.237c-12.326 0-23.609-8.06-27.306-20.48-4.457-15.076 4.266-30.91 19.342-35.271l198.637-58.216c15.076-4.457 30.91 4.266 35.271 19.342s-4.267 30.91-19.342 35.271l-198.637 58.216a28.871 28.871 0 01-7.965 1.138zm.759 142.886c-12.326 0-23.609-8.06-27.307-20.48-4.456-15.076 4.267-30.91 19.342-35.271l198.637-58.216c15.076-4.457 30.91 4.266 35.272 19.342 4.456 15.075-4.267 30.91-19.343 35.27l-198.637 58.217a28.871 28.871 0 01-7.964 1.138zm.758 143.265c-12.326 0-23.608-8.06-27.306-20.48-4.457-15.075 4.266-30.91 19.342-35.271l198.637-58.216c15.076-4.457 30.91 4.266 35.271 19.342 4.456 15.076-4.267 30.91-19.342 35.271L633.932 701.25a28.871 28.871 0 01-7.965 1.138zm-227.65-286.151c-2.655 0-5.31-.38-7.964-1.138l-198.637-58.216c-15.076-4.456-23.704-20.196-19.343-35.271 4.457-15.076 20.196-23.704 35.271-19.342l198.637 58.216c15.076 4.456 23.704 20.195 19.343 35.271-3.603 12.42-14.981 20.48-27.307 20.48zm-.664 142.886c-2.654 0-5.31-.38-7.964-1.138L191.052 499.77c-15.076-4.456-23.704-20.196-19.342-35.271 4.456-15.076 20.195-23.704 35.27-19.342l198.638 58.216c15.075 4.456 23.703 20.195 19.342 35.271-3.698 12.42-15.076 20.48-27.307 20.48zm-.758 143.265c-2.655 0-5.31-.38-7.965-1.138l-198.637-58.216c-15.075-4.456-23.703-20.195-19.342-35.271 4.456-15.076 20.196-23.704 35.271-19.342l198.637 58.216c15.076 4.456 23.704 20.196 19.342 35.271-3.697 12.42-15.075 20.48-27.306 20.48zm115.2 225.849c-12.516 0-23.988-8.344-27.402-21.049-4.077-15.17 4.836-30.815 20.006-34.892l419.935-113.493c15.17-4.077 30.815 4.836 34.892 20.006 4.077 15.17-4.836 30.815-20.006 34.892L519.585 927.289c-2.465.664-5.025.948-7.49.948z"/><path d="M935.917 814.744c-15.74 0-28.444-12.705-28.444-28.445V105.244c0-15.739 12.705-28.444 28.444-28.444s28.444 12.705 28.444 28.444V786.3c0 15.74-12.705 28.445-28.444 28.445z"/></svg>