<svg class="icon" viewBox="0 0 1024 1024" xmlns="http://www.w3.org/2000/svg" width="200" height="200"><defs><style/></defs><path d="M917.004 946.86H251.928c-15.971 0-28.917-12.946-28.917-28.917V252.866c0-15.969 12.946-28.917 28.917-28.917h665.077c15.97 0 28.917 12.947 28.917 28.918v665.076c0 15.971-12.946 28.916-28.917 28.916zm-25.302-668.691H277.229V892.64h614.473V278.169zm-513.48 108.435h412.485c15.852 0 28.703 12.138 28.703 27.109s-12.851 27.11-28.703 27.11H378.222c-15.85 0-28.702-12.139-28.702-27.11s12.851-27.11 28.703-27.11zm0 162.654h412.485c15.852 0 28.703 12.138 28.703 27.11s-12.851 27.109-28.703 27.109H378.222c-15.85 0-28.702-12.138-28.702-27.11 0-14.971 12.851-27.109 28.703-27.109zm0 180.728h412.485c15.852 0 28.703 12.137 28.703 27.108s-12.851 27.11-28.703 27.11H378.222c-15.85 0-28.702-12.138-28.702-27.11s12.851-27.108 28.703-27.108zm368.898-596.4H132.647v614.473h54.219v54.218h-79.521c-15.97 0-28.916-12.946-28.916-28.917V108.284c0-15.969 12.947-28.916 28.916-28.916h665.078c15.969 0 28.916 12.947 28.916 28.916v79.521H747.12v-54.217z"/></svg>