<svg class="icon" viewBox="0 0 1026 1024" xmlns="http://www.w3.org/2000/svg" width="200.391" height="200"><defs><style/></defs><path d="M995.992 893.736a30.182 30.182 0 01-30.182-30.181V127.849a67.486 67.486 0 00-67.607-67.486H162.98a30.182 30.182 0 010-60.363h735.223a127.91 127.91 0 01127.97 127.85v735.705a30.182 30.182 0 01-30.181 30.181z"/><path d="M784.72 1024H108.655A108.654 108.654 0 010 915.346v-676.61a108.654 108.654 0 01108.654-108.653H784.72a108.654 108.654 0 01108.653 108.653v676.791A108.654 108.654 0 01784.721 1024zM108.655 190.627a48.29 48.29 0 00-48.29 48.29v676.61a48.29 48.29 0 0048.29 48.291H784.72a48.29 48.29 0 0048.29-48.29V238.735a48.29 48.29 0 00-48.29-48.29z"/><path d="M663.029 728.824a20.644 20.644 0 01-7.425 16.178 26.379 26.379 0 01-18.11 6.459 22.938 22.938 0 01-22.635-15.514l-45.635-104.79H325.418l-46.54 104.79a22.938 22.938 0 01-22.637 15.514 26.5 26.5 0 01-18.108-6.822 21.067 21.067 0 01-7.787-16.479 22.515 22.515 0 012.595-10.322l184.953-411.374a27.827 27.827 0 0111.65-13.582 32.958 32.958 0 0117.143-4.527 32.536 32.536 0 0117.445 4.829 30.182 30.182 0 0111.65 13.28l184.953 411.374a23.723 23.723 0 012.294 10.986zM549.848 587.152L447.23 354.996 344.855 587.152z"/><path d="M637.797 757.497a28.914 28.914 0 01-28.13-19.256l-44.306-101.048h-236.02l-44.97 101.169a28.793 28.793 0 01-28.13 19.135 32.415 32.415 0 01-22.092-8.33 26.922 26.922 0 01-9.84-21.007 29.457 29.457 0 013.2-13.038L412.4 303.989a34.045 34.045 0 0114.125-16.298 39.719 39.719 0 0140.503.422 36.218 36.218 0 0113.944 15.815l184.953 411.375a30.182 30.182 0 013.139 13.521 26.318 26.318 0 01-9.538 20.705 32.294 32.294 0 01-21.73 7.968zM321.494 625.12H573.45l47.505 108.654a16.962 16.962 0 0017.083 12.073 20.1 20.1 0 0013.823-5.01 14.427 14.427 0 005.373-11.59 18.954 18.954 0 00-1.932-8.33L469.987 308.938a24.93 24.93 0 00-9.356-10.623 26.077 26.077 0 00-13.944-3.924 26.56 26.56 0 00-13.763 3.682 22.033 22.033 0 00-9.175 10.805L238.434 720.313a17.505 17.505 0 00-2.052 7.847 15.03 15.03 0 005.674 12.073 20.705 20.705 0 0014.185 5.312 16.902 16.902 0 0017.023-12.073zm237.65-31.932H335.8l111.189-253.163zm-205.235-12.072h186.643l-93.503-211.271zM651.922 891.02H253.525a30.182 30.182 0 010-60.363h398.397a30.182 30.182 0 010 60.363z"/></svg>